<svg xmlns="http://www.w3.org/2000/svg" width="94" height="16" fill="none"><path fill="#83BA3B" d="M91.661 1.216C90.481.408 88.695 0 86.355 0h-6.13l-2.28 12.372h-8.03l.516-2.807h4.838l.573-3.152-4.835.007.518-2.795h4.983L77.17.001H67.05l-2.163 11.736h-3.713L63.353 0h-5.29L55.9 11.736h-3.618L54.462 0h-5.286l-2.282 12.372h-8.088l.511-2.807h4.857l.574-3.134-4.852-.005.514-2.8h5.04L46.107 0H14.575L12.78 9.804 9.206 0H3.718L.764 16h5.241L7.793 5.926 11.262 16h18.783L32.33 3.624h2.938L32.983 16h49.424l1.433-7.812L86.158 16h5.244L89 9.617l.55-.119c1.21-.26 2.154-.816 2.812-1.652.656-.843.99-1.925.99-3.226 0-1.513-.553-2.627-1.692-3.405l.001.001ZM25.485 12.372h-8.023l.518-2.807h5.032l.57-3.161H18.6l.48-2.778h8.011l-1.607 8.746h.002Zm61.855-5.39c-.527.37-1.292.55-2.337.55h-1.037l.795-4.295h.763c.868 0 1.501.14 1.938.423.34.223.746.663.746 1.496 0 1.007-.473 1.549-.87 1.827h.002Z"/></svg>