<svg xmlns="http://www.w3.org/2000/svg" width="85" height="19" fill="none"><path fill="#F25022" d="M0 0h8.62v8.62H0V0Z"/><path fill="#80BA01" d="M9.5 0h8.62v8.62H9.5V0Z"/><path fill="#777" d="M77.72 3.29c.8-.52 1.82-.57 2.72-.32v1.6c-.43-.2-.93-.3-1.37-.13-.36.14-.57.5-.62.87-.07.46-.02.93-.03 1.4h2.73l.01-1.77L83 4.38l.01 2.33h1.84v1.5L83 8.2v2.6c.01.48-.03.97.03 1.45.03.28.14.6.4.74.44.25 1 .14 1.42-.13v1.53c-.53.23-1.13.3-1.7.26-.55-.04-1.1-.24-1.47-.67-.4-.5-.52-1.16-.53-1.78v-4h-2.73v6.3h-1.86V8.2c-.43-.01-.86 0-1.3-.01v-1.5h1.3c.03-.66-.07-1.34.13-2a2.39 2.39 0 0 1 1.04-1.43l-.01.03Zm-39.9.1c.38-.06.78.07 1.03.37a1.06 1.06 0 0 1 .13 1.21c-.24.42-.77.62-1.24.52-.48-.1-.9-.54-.87-1.04-.01-.53.43-1 .95-1.06Zm-14.3.24h2.7l3.18 8.03 3.26-8.03 2.6-.01v10.87h-1.84V6.1c-.04.06-.07.1-.1.17l-3.25 8.2-1.34.01-3.3-8.22-.1-.17v8.37h-1.8V3.63h-.01ZM42.94 6.7c.9-.26 1.87-.25 2.77.01.186.048.364.122.53.22l-.01 1.78c-.6-.46-1.36-.75-2.13-.65-.6.05-1.2.37-1.55.86-.47.6-.57 1.4-.5 2.16.06.58.3 1.16.75 1.55.47.42 1.13.57 1.74.52.6-.07 1.18-.33 1.67-.7v1.7c-.76.45-1.68.57-2.55.53-.9-.05-1.78-.4-2.43-1-.7-.68-1.08-1.64-1.13-2.6-.05-1 .16-2.05.74-2.9.5-.73 1.27-1.23 2.1-1.47V6.7Zm12.63-.14c.9-.1 1.84-.06 2.67.3.72.33 1.3.93 1.63 1.65.35.77.43 1.63.37 2.46-.06.8-.3 1.62-.82 2.27-.52.68-1.3 1.15-2.14 1.32-.72.15-1.47.15-2.18 0-.86-.18-1.65-.68-2.15-1.4-.6-.84-.76-1.9-.68-2.9.05-.85.32-1.7.86-2.38.58-.76 1.5-1.2 2.44-1.32Zm7.73.02c.86-.15 1.76-.04 2.58.27v1.7a3.34 3.34 0 0 0-1.96-.57c-.35.01-.73.16-.9.5-.13.33-.04.76.27.95.53.35 1.16.5 1.7.82.43.24.85.56 1.07 1.02.4.86.24 1.98-.48 2.62-.7.64-1.68.82-2.6.8a5.648 5.648 0 0 1-1.9-.43v-1.8a4.169 4.169 0 0 0 1.7.73c.43.07.9.07 1.3-.12.38-.2.45-.73.22-1.06-.2-.25-.52-.4-.8-.53-.55-.25-1.13-.45-1.6-.82a1.92 1.92 0 0 1-.7-1.06c-.15-.62-.1-1.32.26-1.86.4-.63 1.1-1 1.84-1.14v-.02Zm7.12-.02c.93-.12 1.92-.05 2.77.38.74.37 1.3 1.04 1.6 1.8.22.6.3 1.23.3 1.86 0 .94-.25 1.9-.84 2.65-.55.72-1.4 1.2-2.3 1.34-.87.14-1.8.1-2.63-.22a3.46 3.46 0 0 1-1.9-1.84c-.37-.85-.4-1.8-.3-2.7.1-.9.53-1.8 1.23-2.4.57-.5 1.3-.78 2.05-.88l.02.01Zm-20 .26c.5-.3 1.17-.33 1.73-.15v1.86c-.37-.24-.83-.34-1.26-.3-.53.06-.95.47-1.17.93-.24.5-.28 1.05-.27 1.6v3.73h-1.83v-7.8h1.84v1.34c.2-.47.5-.94.97-1.2l-.01-.01Zm-13.38-.1h1.85v7.78h-1.85V6.71v.01Z"/><path fill="#FEFEFE" d="M56.12 8.04c.56-.04 1.16.12 1.56.53.43.42.6 1.04.64 1.62.03.64.01 1.3-.26 1.9-.18.4-.5.74-.92.9-.48.18-1.02.2-1.52.07s-.93-.5-1.17-.96c-.3-.6-.35-1.3-.28-1.95.06-.6.26-1.2.72-1.63.34-.3.8-.45 1.23-.48Zm14.8 0c.53-.04 1.1.08 1.5.44.37.3.58.77.67 1.24a4.63 4.63 0 0 1 .02 1.66c-.07.4-.2.82-.48 1.14-.27.33-.67.52-1.1.6a2.502 2.502 0 0 1-1.33-.14 1.9 1.9 0 0 1-.98-1.03c-.22-.53-.27-1.13-.22-1.7.04-.55.2-1.12.56-1.55.33-.4.84-.62 1.36-.65v-.01Zm12.06.17 1.85.01v4.66c-.4.27-.97.38-1.42.13-.27-.15-.37-.46-.4-.74-.06-.48-.02-.96-.03-1.45V8.21Z"/><path fill="#02A4EF" d="M0 9.5h8.62v8.62H0V9.5Z"/><path fill="#FFB902" d="M9.5 9.5h8.62v8.62H9.5V9.5Z"/></svg>