<svg xmlns="http://www.w3.org/2000/svg" width="36" height="22" fill="none"><path fill="#FF5F00" fill-rule="evenodd" d="M12.927 19.648h9.581V2.352h-9.581v17.296Z" clip-rule="evenodd"/><path fill="#EB001B" fill-rule="evenodd" d="M13.535 11c0-3.509 1.636-6.634 4.183-8.648A10.872 10.872 0 0 0 10.95 0C4.902 0 0 4.925 0 11s4.902 11 10.95 11c2.555 0 4.905-.879 6.768-2.352A10.998 10.998 0 0 1 13.535 11Z" clip-rule="evenodd"/><path fill="#F79E1B" fill-rule="evenodd" d="M35.093 17.816v-.427h-.11l-.128.294-.128-.294h-.111v.427h.078v-.322l.12.278h.081l.12-.278v.322h.078Zm-.703 0v-.354h.142v-.072h-.361v.072h.142v.354h.077ZM35.435 11c0 6.075-4.903 11-10.95 11-2.555 0-4.905-.879-6.767-2.352A10.998 10.998 0 0 0 21.9 11c0-3.509-1.635-6.634-4.182-8.648A10.871 10.871 0 0 1 24.485 0c6.047 0 10.95 4.925 10.95 11Z" clip-rule="evenodd"/></svg>