<svg xmlns="http://www.w3.org/2000/svg" width="73" height="18" fill="none"><path fill="#000" d="M17.14 16.25H13.1l-1.24-3H5.1l-1.13 3H0l6.08-15.1h4.36l6.7 15.1ZM8.32 4.77l-2.2 5.86h4.65L8.32 4.77Zm23.53-3.6h3.27v15.1h-3.76V6.82l-4.07 4.73h-.57l-4.07-4.73v9.42H18.9V1.16h3.27L27 6.76l4.85-5.6v.01Zm12.8 0c5.5 0 8.34 3.43 8.34 7.57 0 4.34-2.74 7.52-8.76 7.52H38V1.16h6.66l-.01.01Zm-2.9 12.32h2.46c3.78 0 4.9-2.57 4.9-4.78 0-2.6-1.4-4.78-4.96-4.78h-2.4v9.56Zm26.5-8.74h-7.78L55.74 0H73v17.27l-4.74-4.74-.01-7.78Zm-7.8 7.78V5.7l-4.88 4.88v6.84h6.83l4.9-4.9-6.85.01Z"/></svg>