<svg xmlns="http://www.w3.org/2000/svg" width="58" height="17" fill="none"><path fill="url(#a)" fill-rule="evenodd" d="M41.535 4.084c1.307 0 2.365-.914 2.365-2.041C43.9.915 42.842 0 41.535 0c-1.304 0-2.362.915-2.362 2.043 0 1.127 1.058 2.041 2.362 2.041Zm-18.11 1.103c-.107.231-.875 2.105-2.732 4.048V.929l-4.949.845V16.83h4.949v-4.654c1.433 1.858 2.141 4.654 2.141 4.654h5.928c-.587-2.106-3.151-5.99-3.151-5.99 2.302-2.52 3.313-5.207 3.473-5.652h-5.659Zm13.01-.157c-4.432.122-6.682 1.84-6.682 5.256v6.543h4.836v-5.336c0-2.045.31-2.921 3.118-3.005V5.09c-.472-.087-1.272-.06-1.272-.06ZM7.445 6.844c-.607-.034-2.01-.112-2.01-1.204 0-1.317 2.02-1.317 2.778-1.317 1.333 0 3.058.34 4.29.659 0 0 .688.21 1.273.424l.055.012V1.811l-.075-.019c-1.454-.44-3.146-.863-6.281-.863C2.069.93.153 3.65.153 5.981c0 1.344.667 4.506 6.858 4.87.525.029 1.918.098 1.918 1.226 0 .931-1.14 1.48-3.058 1.48-2.102 0-4.141-.463-5.38-.902v3.715c1.854.42 3.944.63 6.394.63 5.286 0 7.653-2.574 7.653-5.126 0-2.893-2.649-4.772-7.094-5.03Zm31.693 9.985h4.797V5.199h-4.797v11.63ZM52.967 1.67v15.158h4.797V.929l-4.797.742Zm-7 0L50.76.929v15.9h-4.793V1.67Z" clip-rule="evenodd"/><defs><linearGradient id="a" x1="15.733" x2="18.99" y1="0" y2="21.134" gradientUnits="userSpaceOnUse"><stop stop-color="#6B195F"/><stop offset="1" stop-color="#4C255B"/></linearGradient></defs></svg>