<svg xmlns="http://www.w3.org/2000/svg" width="53" height="17" fill="none"><path fill="#1434CB" d="M34.576 0c-3.722 0-7.048 1.931-7.048 5.499 0 4.09 5.899 4.374 5.899 6.429 0 .865-.99 1.64-2.683 1.64-2.402 0-4.197-1.082-4.197-1.082l-.768 3.6s2.068.914 4.813.914c4.07 0 7.271-2.026 7.271-5.654 0-4.324-5.923-4.598-5.923-6.506 0-.678.813-1.42 2.5-1.42 1.905 0 3.458.787 3.458.787L38.65.73S36.96 0 34.576 0ZM.526.262l-.09.525s1.565.287 2.975.86c1.816.655 1.945 1.037 2.251 2.224l3.332 12.858h4.467L20.343.262h-4.457l-4.421 11.196-1.805-9.49C9.495.882 8.656.262 7.63.262H.525Zm21.61 0L18.638 16.73h4.25L26.373.262h-4.238Zm23.703 0c-1.025 0-1.568.55-1.966 1.51l-6.227 14.957h4.457l.862-2.493h5.43l.524 2.493h3.933L49.422.262h-3.583Zm.58 4.45 1.32 6.178H44.2l2.219-6.179Z"/></svg>