<svg xmlns="http://www.w3.org/2000/svg" width="73" height="19" fill="none"><path fill="#253B80" d="M9.408 0H3.862A.77.77 0 0 0 3.1.652L.857 14.872a.462.462 0 0 0 .458.534h2.648a.77.77 0 0 0 .761-.651l.605-3.836a.77.77 0 0 1 .76-.651h1.756c3.653 0 5.762-1.768 6.313-5.271.248-1.533.01-2.737-.708-3.58C12.662.49 11.264 0 9.408 0Zm.64 5.195c-.304 1.99-1.824 1.99-3.294 1.99h-.837l.587-3.717a.462.462 0 0 1 .457-.39h.383c1.002 0 1.946 0 2.434.571.292.34.38.847.27 1.546Zm15.938-.064H23.33a.462.462 0 0 0-.457.39l-.117.743-.186-.27c-.575-.834-1.857-1.113-3.137-1.113-2.934 0-5.441 2.223-5.93 5.34-.253 1.556.108 3.043.99 4.08.81.954 1.967 1.351 3.345 1.351 2.365 0 3.676-1.52 3.676-1.52l-.118.738a.462.462 0 0 0 .456.535h2.392a.77.77 0 0 0 .761-.651l1.436-9.09a.462.462 0 0 0-.455-.533ZM22.284 10.3c-.256 1.517-1.46 2.535-2.997 2.535-.77 0-1.387-.247-1.783-.716-.392-.465-.542-1.128-.417-1.866.24-1.504 1.464-2.556 2.977-2.556.754 0 1.367.25 1.77.724.405.477.566 1.144.45 1.879ZM40.13 5.13H37.46a.773.773 0 0 0-.638.339l-3.68 5.422-1.561-5.21a.772.772 0 0 0-.74-.55H28.22a.462.462 0 0 0-.439.611l2.94 8.627-2.764 3.901a.463.463 0 0 0 .377.73H31a.77.77 0 0 0 .633-.33l8.876-12.813a.462.462 0 0 0-.38-.726Z"/><path fill="#179BD7" d="M48.966 0h-5.547a.77.77 0 0 0-.76.651l-2.244 14.221a.46.46 0 0 0 .456.534h2.846a.539.539 0 0 0 .532-.456l.637-4.03a.77.77 0 0 1 .76-.652h1.755c3.654 0 5.762-1.768 6.313-5.271.25-1.533.01-2.737-.708-3.58C52.22.49 50.822 0 48.966 0Zm.64 5.195c-.303 1.99-1.824 1.99-3.295 1.99h-.836l.588-3.717a.46.46 0 0 1 .456-.39h.384c1 0 1.946 0 2.434.571.291.34.38.847.268 1.546Zm15.937-.064h-2.655a.46.46 0 0 0-.455.39l-.118.743-.186-.27c-.575-.834-1.857-1.113-3.136-1.113-2.935 0-5.44 2.223-5.929 5.34-.253 1.556.106 3.043.989 4.08.81.954 1.967 1.351 3.345 1.351 2.364 0 3.675-1.52 3.675-1.52l-.118.738a.462.462 0 0 0 .458.535h2.39a.77.77 0 0 0 .761-.651l1.437-9.09a.462.462 0 0 0-.459-.533ZM61.84 10.3c-.255 1.517-1.46 2.535-2.997 2.535-.77 0-1.387-.247-1.783-.716-.392-.465-.54-1.128-.417-1.866.241-1.504 1.464-2.556 2.976-2.556.755 0 1.368.25 1.771.724.407.477.567 1.144.45 1.879ZM68.674.39l-2.277 14.482a.462.462 0 0 0 .456.534h2.288a.77.77 0 0 0 .762-.651L72.147.535A.463.463 0 0 0 71.692 0h-2.563a.463.463 0 0 0-.456.39Z"/></svg>